<?xml version="1.0" encoding="UTF-8" standalone="no"?>
<!--
  - Copyright 2025 the Andlogview authors
  -
  - Licensed under the Apache License, Version 2.0 (the "License");
  - you may not use this file except in compliance with the License.
  - You may obtain a copy of the License at
  -
  -     http://www.apache.org/licenses/LICENSE-2.0
  -
  - Unless required by applicable law or agreed to in writing, software
  - distributed under the License is distributed on an "AS IS" BASIS,
  - WITHOUT WARRANTIES OR CONDITIONS OF ANY KIND, either express or implied.
  - See the License for the specific language governing permissions and
  - limitations under the License.
  -->

<!-- Created with Inkscape (http://www.inkscape.org/) -->

<svg
        width="512"
        height="512"
        viewBox="0 0 135.46666 135.46666"
        version="1.1"
        id="svg1"
        inkscape:version="1.4 (86a8ad7, 2024-10-11)"
        sodipodi:docname="andlogview_round_icon.svg"
        xmlns:inkscape="http://www.inkscape.org/namespaces/inkscape"
        xmlns:sodipodi="http://sodipodi.sourceforge.net/DTD/sodipodi-0.dtd"
        xmlns="http://www.w3.org/2000/svg"
>
  <sodipodi:namedview
     id="namedview1"
     pagecolor="#ffffff"
     bordercolor="#000000"
     borderopacity="0.25"
     inkscape:showpageshadow="2"
     inkscape:pageopacity="0.0"
     inkscape:pagecheckerboard="true"
     inkscape:deskcolor="#d1d1d1"
     inkscape:document-units="px"
     inkscape:zoom="0.82982955"
     inkscape:cx="214.50188"
     inkscape:cy="634.46764"
     inkscape:window-width="3840"
     inkscape:window-height="2081"
     inkscape:window-x="-9"
     inkscape:window-y="-9"
     inkscape:window-maximized="1"
     inkscape:current-layer="layer2"
     showgrid="false" />
  <defs
     id="defs1">
    <clipPath
       id="a">
      <path
         fill="#ffffff"
         d="m 0.459,0.555 h 151 v 88 h -151 z"
         id="path3-2" />
    </clipPath>
    <inkscape:path-effect
       effect="bspline"
       id="path-effect1004"
       is_visible="true"
       weight="42"
       steps="10"
       helper_size="0"
       apply_no_weight="true"
       apply_with_weight="true"
       only_selected="true"
       lpeversion="0"
       uniform="false" />
  </defs>
  <g
     inkscape:label="Layer 1"
     inkscape:groupmode="layer"
     id="layer1"
     transform="translate(0.50416446,2.0911229)" />
  <g
     inkscape:groupmode="layer"
     id="layer2"
     inkscape:label="Layer 2"
     style="display:inline"
     transform="translate(0.97825814,2.4964674)">
    <path
       style="display:inline;vector-effect:none;fill:#ffffff;fill-opacity:1;fill-rule:nonzero;stroke:#ffffff;stroke-width:8;stroke-linecap:butt;stroke-linejoin:miter;stroke-miterlimit:98;stroke-dasharray:none;stroke-dashoffset:40;stroke-opacity:1;paint-order:normal"
       d="M 61.0005,61.0005 C 97.001,25 155.501,25 250.001,25 c 94.5,0 153,0 188.9995,36.0005 C 475,97.001 475,155.501 475,250.001 c 0,94.5 0,153 -35.9995,188.9995 C 403.001,475 344.501,475 250.001,475 c -94.5,0 -153,0 -189.0005,-35.9995 C 25,403.001 25,344.501 25,250.001 c 0,-94.5 0,-153 36.0005,-189.0005 z"
       id="path1002"
       inkscape:connector-curvature="0"
       inkscape:path-effect="#path-effect1004"
       inkscape:original-d="m 25,25 c 72.001,0.001 130.501,0.001 225,0 94.501,0.001 153.001,0.001 225,0 10e-4,72.001 10e-4,130.501 0,225 10e-4,94.501 10e-4,153.001 0,225 -71.999,10e-4 -130.499,10e-4 -225,0 -94.499,10e-4 -152.999,10e-4 -225,0 0.001,-71.999 0.001,-130.499 0,-225 0.001,-94.499 0.001,-152.999 0,-225 z"
       sodipodi:nodetypes="ccccccccc"
       transform="matrix(0.28686039,0,0,0.28686039,-4.9600255,-6.4782348)" />
    <g
       clip-path="url(#a)"
       id="g2"
       transform="matrix(0.54001286,0,0,0.44952968,23.410174,6.9247054)">
      <path
         fill="#34a853"
         d="m 151.025,85.224 q -0.071,-0.464 -0.147,-0.92 a 75.665,75.665 0 0 0 -7.546,-22.597 76.5,76.5 0 0 0 -5.511,-8.995 76,76 0 0 0 -8.322,-9.808 76.034,76.034 0 0 0 -13.398,-10.626 q 0.042,-0.074 0.085,-0.148 2.286,-3.948 4.572,-7.897 l 4.47,-7.712 a 3946,3946 0 0 0 3.208,-5.54 q 0.38,-0.658 0.604,-1.355 a 6.97,6.97 0 0 0 -0.652,-5.702 6.9,6.9 0 0 0 -2.406,-2.398 7,7 0 0 0 -2.954,-0.95 7,7 0 0 0 -2.376,0.206 6.93,6.93 0 0 0 -4.22,3.227 q -1.606,2.77 -3.208,5.54 l -4.47,7.712 c -1.523,2.634 -3.05,5.263 -4.573,7.897 q -0.25,0.43 -0.5,0.865 c -0.232,-0.092 -0.46,-0.184 -0.692,-0.272 -8.398,-3.205 -17.511,-4.958 -27.036,-4.958 q -0.39,-10e-4 -0.78,0.004 A 75.7,75.7 0 0 0 50.977,25 q -1.317,0.46 -2.608,0.968 -0.234,-0.404 -0.467,-0.806 -2.286,-3.95 -4.573,-7.897 l -4.47,-7.713 a 4385,4385 0 0 1 -3.208,-5.54 6.93,6.93 0 0 0 -6.596,-3.432 6.9,6.9 0 0 0 -2.954,0.95 6.92,6.92 0 0 0 -3.157,4.185 6.96,6.96 0 0 0 0.703,5.27 l 3.208,5.54 4.47,7.713 c 1.523,2.634 3.05,5.263 4.573,7.897 0.01,0.022 0.025,0.044 0.036,0.066 A 76.3,76.3 0 0 0 22.407,42.912 76.5,76.5 0 0 0 14.085,52.72 75.4,75.4 0 0 0 8.575,61.715 75.7,75.7 0 0 0 1.029,84.312 76.038,76.038 0 0 0 0.448,88.559 h 151 a 77,77 0 0 0 -0.434,-3.327 z"
         id="path1-5" />
      <path
         fill="#202124"
         d="m 115.225,67.663 c 3.022,-2.012 3.461,-6.668 0.981,-10.4 -2.48,-3.73 -6.939,-5.123 -9.96,-3.11 -3.021,2.012 -3.46,6.668 -0.98,10.4 2.479,3.73 6.938,5.123 9.959,3.11 M 46.762,64.564 c 2.48,-3.73 2.04,-8.387 -0.98,-10.4 -3.022,-2.012 -7.481,-0.619 -9.96,3.112 -2.479,3.731 -2.041,8.387 0.98,10.4 3.021,2.013 7.48,0.62 9.96,-3.112"
         id="path2-5" />
    </g>
    <path
       style="fill:#34a853;fill-opacity:1;stroke-width:5.43267"
       d="m 45.411693,118.96155 c 0,-1.49996 1.216158,-2.71634 2.716336,-2.71634 h 54.326711 c 1.49996,0 2.71633,1.21638 2.71633,2.71634 0,1.49996 -1.21637,2.71633 -2.71633,2.71633 H 48.128029 c -1.500178,0 -2.716336,-1.21637 -2.716336,-2.71633 z"
       id="path32" />
    <path
       style="fill:#34a853;fill-opacity:1;stroke-width:5.43267"
       d="m 23.681011,118.96155 c 0,-1.49996 1.216147,-2.71634 2.716335,-2.71634 h 10.865341 c 1.500178,0 2.716336,1.21638 2.716336,2.71634 0,1.49996 -1.216158,2.71633 -2.716336,2.71633 H 26.397346 c -1.500188,0 -2.716335,-1.21637 -2.716335,-2.71633 z"
       id="path31" />
    <path
       style="fill:#34a853;fill-opacity:1;stroke-width:5.43267"
       d="m 45.411693,102.66354 c 0,-1.49996 1.216158,-2.716335 2.716336,-2.716335 h 38.028694 c 1.49996,0 2.716335,1.216375 2.716335,2.716335 0,1.49996 -1.216375,2.71634 -2.716335,2.71634 H 48.128029 c -1.500178,0 -2.716336,-1.21638 -2.716336,-2.71634 z"
       id="path30" />
    <path
       id="path29"
       style="fill:#34a853;fill-opacity:1;stroke-width:7.08049"
       d="m 95.610951,90.556539 c 0.876935,-2.602035 1.421986,-5.469459 1.561075,-8.501585 H 65.284138 c 0.139025,3.032478 0.68382,5.899695 1.560513,8.501585 z" />
    <path
       id="path43"
       style="fill:#34a853;fill-opacity:1;stroke-width:5.43267"
       d="m 104.51093,88.121752 c 0.40591,-0.47466 0.65991,-1.082475 0.65991,-1.755965 0,-0.3471 -0.071,-0.676706 -0.18965,-0.981852 -0.10523,0.929678 -0.26164,1.84353 -0.47026,2.737817 z" />
    <path
       id="path41"
       style="fill:#34a853;fill-opacity:1;stroke-width:5.43267"
       d="m 57.272472,83.649157 h -9.144661 c -1.500178,0 -2.716113,1.216452 -2.716113,2.71663 0,1.500177 1.215935,2.716114 2.716113,2.716114 h 9.979236 c -0.297408,-1.067905 -0.524715,-2.161855 -0.666109,-3.27887 -0.09168,-0.724459 -0.140298,-1.441315 -0.168466,-2.153874 z" />
    <path
       style="fill:#34a853;fill-opacity:1;stroke-width:5.43267"
       d="m 23.681011,86.365529 c 0,-1.500178 1.216147,-2.716336 2.716335,-2.716336 h 10.865341 c 1.500178,0 2.716336,1.216158 2.716336,2.716336 0,1.500177 -1.216158,2.716335 -2.716336,2.716335 H 26.397346 c -1.500188,0 -2.716335,-1.216158 -2.716335,-2.716335 z"
       id="path28" />
    <path
       id="path27"
       style="fill:#34a853;fill-opacity:1;stroke-width:7.45722"
       d="m 91.418169,71.172093 c -2.951047,-2.03975 -6.423643,-3.239289 -10.15258,-3.239289 -5.638399,0 -10.702093,2.713769 -14.223594,7.003041 h 9.316256 11.521723 c 1.909595,0 3.462843,-1.671625 3.538195,-3.763752 z" />
    <path
       id="path39"
       style="fill:#34a853;fill-opacity:1;stroke-width:5.43267"
       d="M 62.795132,67.350927 H 48.12781 c -1.500178,0 -2.716113,1.216452 -2.716113,2.71663 0,1.500177 1.215935,2.716114 2.716113,2.716114 h 11.256161 c 0.893805,-1.967959 2.043882,-3.792707 3.411161,-5.432744 z" />
    <path
       style="fill:#34a853;fill-opacity:1;stroke-width:5.43267"
       d="m 45.411693,53.769505 c 0,-1.500178 1.216158,-2.716335 2.716336,-2.716335 h 54.326711 c 1.49996,0 2.71633,1.216157 2.71633,2.716335 0,1.500178 -1.21637,2.716335 -2.71633,2.716335 H 48.128029 c -1.500178,0 -2.716336,-1.216157 -2.716336,-2.716335 z"
       id="path26" />
    <path
       style="fill:#34a853;fill-opacity:1;stroke-width:5.43267"
       d="m 23.681011,53.769505 c 0,-1.500178 1.216147,-2.716335 2.716335,-2.716335 h 10.865341 c 1.500178,0 2.716336,1.216157 2.716336,2.716335 0,1.500178 -1.216158,2.716335 -2.716336,2.716335 H 26.397346 c -1.500188,0 -2.716335,-1.216157 -2.716335,-2.716335 z"
       id="path1" />
    <path
       style="display:inline;stroke-width:0.115143"
       d="m 114.84837,109.81036 -13.7826,-13.782589 c 3.1342,-4.652918 4.68056,-10.466476 3.85268,-16.661159 C 103.5068,68.829905 94.871091,60.25522 84.324024,58.919909 68.642728,56.935653 55.456581,70.121808 57.440947,85.803091 c 1.335657,10.551692 9.911493,19.194309 20.449361,20.599049 6.19467,0.82775 12.009387,-0.71804 16.661159,-3.85269 l 13.782583,13.78259 c 1.79853,1.79854 4.7151,1.79854 6.51363,0 1.79692,-1.80082 1.79692,-4.72545 8.7e-4,-6.52168 z M 66.35023,82.671207 c 0,-8.126772 6.611497,-14.738269 14.738284,-14.738269 8.126772,0 14.738269,6.611497 14.738269,14.738269 0,8.126786 -6.611497,14.738283 -14.738269,14.738283 -8.126786,0 -14.738283,-6.609204 -14.738284,-14.738283 z"
       id="path36" />
  </g>
</svg>
