<svg xmlns="http://www.w3.org/2000/svg" version="1.1" xmlns:xlink="http://www.w3.org/1999/xlink" xmlns:svgjs="http://svgjs.dev/svgjs" width="1000" height="1000"><style>
    #light-icon {
      display: inline;
    }
    #dark-icon {
      display: none;
    }

    @media (prefers-color-scheme: dark) {
      #light-icon {
        display: none;
      }
      #dark-icon {
        display: inline;
      }
    }
  </style><g id="light-icon"><svg xmlns="http://www.w3.org/2000/svg" version="1.1" xmlns:xlink="http://www.w3.org/1999/xlink" xmlns:svgjs="http://svgjs.dev/svgjs" width="1000" height="1000"><g><g transform="matrix(2.3094688221709005,0,0,2.3094688221709005,5.684341886080802e-14,5.684341886080802e-14)"><svg xmlns="http://www.w3.org/2000/svg" version="1.1" xmlns:xlink="http://www.w3.org/1999/xlink" xmlns:svgjs="http://svgjs.dev/svgjs" width="433" height="433"><svg width="433" height="433" viewBox="0 0 114.56458 114.56458" version="1.1" id="svg1" inkscape:version="1.4 (86a8ad7, 2024-10-11)" sodipodi:docname="icon_v3.svg" xmlns:inkscape="http://www.inkscape.org/namespaces/inkscape" xmlns:sodipodi="http://sodipodi.sourceforge.net/DTD/sodipodi-0.dtd" xmlns="http://www.w3.org/2000/svg" xmlns:svg="http://www.w3.org/2000/svg">
  <sodipodi:namedview id="namedview1" pagecolor="#ffffff" bordercolor="#000000" borderopacity="0.25" inkscape:showpageshadow="2" inkscape:pageopacity="0.0" inkscape:pagecheckerboard="0" inkscape:deskcolor="#d1d1d1" inkscape:document-units="mm" inkscape:zoom="6.6386364" inkscape:cx="285.75145" inkscape:cy="266.69634" inkscape:window-width="3840" inkscape:window-height="2081" inkscape:window-x="-9" inkscape:window-y="-9" inkscape:window-maximized="1" inkscape:current-layer="layer1"></sodipodi:namedview>
  <defs id="defs1">
    <clipPath id="a">
      <path fill="#ffffff" d="m 0.459,0.555 h 151 v 88 h -151 z" id="path3-2"></path>
    </clipPath>
  </defs>
  <g inkscape:label="Layer 1" inkscape:groupmode="layer" id="layer1" transform="translate(-0.47409368,-0.4053445)">
    <g clip-path="url(#a)" id="g2" transform="matrix(0.54001286,0,0,0.44952969,16.740519,0.18630074)">
      <path fill="#34a853" d="m 151.025,85.224 q -0.071,-0.464 -0.147,-0.92 a 75.665,75.665 0 0 0 -7.546,-22.597 76.5,76.5 0 0 0 -5.511,-8.995 76,76 0 0 0 -8.322,-9.808 76.034,76.034 0 0 0 -13.398,-10.626 q 0.042,-0.074 0.085,-0.148 2.286,-3.948 4.572,-7.897 l 4.47,-7.712 a 3946,3946 0 0 0 3.208,-5.54 q 0.38,-0.658 0.604,-1.355 a 6.97,6.97 0 0 0 -0.652,-5.702 6.9,6.9 0 0 0 -2.406,-2.398 7,7 0 0 0 -2.954,-0.95 7,7 0 0 0 -2.376,0.206 6.93,6.93 0 0 0 -4.22,3.227 q -1.606,2.77 -3.208,5.54 l -4.47,7.712 c -1.523,2.634 -3.05,5.263 -4.573,7.897 q -0.25,0.43 -0.5,0.865 c -0.232,-0.092 -0.46,-0.184 -0.692,-0.272 -8.398,-3.205 -17.511,-4.958 -27.036,-4.958 q -0.39,-10e-4 -0.78,0.004 A 75.7,75.7 0 0 0 50.977,25 q -1.317,0.46 -2.608,0.968 -0.234,-0.404 -0.467,-0.806 -2.286,-3.95 -4.573,-7.897 l -4.47,-7.713 a 4385,4385 0 0 1 -3.208,-5.54 6.93,6.93 0 0 0 -6.596,-3.432 6.9,6.9 0 0 0 -2.954,0.95 6.92,6.92 0 0 0 -3.157,4.185 6.96,6.96 0 0 0 0.703,5.27 l 3.208,5.54 4.47,7.713 c 1.523,2.634 3.05,5.263 4.573,7.897 0.01,0.022 0.025,0.044 0.036,0.066 A 76.3,76.3 0 0 0 22.407,42.912 76.5,76.5 0 0 0 14.085,52.72 75.4,75.4 0 0 0 8.575,61.715 75.7,75.7 0 0 0 1.029,84.312 76.038,76.038 0 0 0 0.448,88.559 h 151 a 77,77 0 0 0 -0.434,-3.327 z" id="path1-5"></path>
      <path fill="#202124" d="m 115.225,67.663 c 3.022,-2.012 3.461,-6.668 0.981,-10.4 -2.48,-3.73 -6.939,-5.123 -9.96,-3.11 -3.021,2.012 -3.46,6.668 -0.98,10.4 2.479,3.73 6.938,5.123 9.959,3.11 M 46.762,64.564 c 2.48,-3.73 2.04,-8.387 -0.98,-10.4 -3.022,-2.012 -7.481,-0.619 -9.96,3.112 -2.479,3.731 -2.041,8.387 0.98,10.4 3.021,2.013 7.48,0.62 9.96,-3.112" id="path2-5"></path>
    </g>
    <path style="fill:#34a853;fill-opacity:1;stroke-width:5.43267" d="m 38.742038,112.22315 c 0,-1.49996 1.216158,-2.71634 2.716336,-2.71634 H 95.78508 c 1.49996,0 2.716335,1.21638 2.716335,2.71634 0,1.49996 -1.216375,2.71633 -2.716335,2.71633 H 41.458374 c -1.500178,0 -2.716336,-1.21637 -2.716336,-2.71633 z" id="path32"></path>
    <path style="fill:#34a853;fill-opacity:1;stroke-width:5.43267" d="m 17.011356,112.22315 c 0,-1.49996 1.216147,-2.71634 2.716335,-2.71634 h 10.865341 c 1.500178,0 2.716336,1.21638 2.716336,2.71634 0,1.49996 -1.216158,2.71633 -2.716336,2.71633 H 19.727691 c -1.500188,0 -2.716335,-1.21637 -2.716335,-2.71633 z" id="path31"></path>
    <path style="fill:#34a853;fill-opacity:1;stroke-width:5.43267" d="m 38.742038,95.925135 c 0,-1.49996 1.216158,-2.716335 2.716336,-2.716335 h 38.028694 c 1.49996,0 2.716335,1.216375 2.716335,2.716335 0,1.499961 -1.216375,2.716336 -2.716335,2.716336 H 41.458374 c -1.500178,0 -2.716336,-1.216375 -2.716336,-2.716336 z" id="path30"></path>
    <path id="path29" style="fill:#34a853;fill-opacity:1;stroke-width:7.08049" d="m 88.941296,83.818134 c 0.876934,-2.602035 1.421985,-5.469459 1.561075,-8.501585 H 58.614483 c 0.139024,3.032478 0.68382,5.899695 1.560513,8.501585 z"></path>
    <path id="path43" style="fill:#34a853;fill-opacity:1;stroke-width:5.43267" d="M 97.841277 81.383347 C 98.247189 80.908687 98.501185 80.300872 98.501185 79.627382 C 98.501185 79.280282 98.430213 78.950676 98.311533 78.64553 C 98.206301 79.575208 98.049892 80.48906 97.841277 81.383347 z "></path>
    <path id="path41" style="fill:#34a853;fill-opacity:1;stroke-width:5.43267" d="M 50.602817 76.910752 L 41.458155 76.910752 C 39.957977 76.910752 38.742042 78.127204 38.742042 79.627382 C 38.742042 81.127559 39.957977 82.343496 41.458155 82.343496 L 51.437391 82.343496 C 51.139983 81.275591 50.912676 80.181641 50.771282 79.064626 C 50.679606 78.340167 50.630984 77.623311 50.602817 76.910752 z "></path>
    <path style="fill:#34a853;fill-opacity:1;stroke-width:5.43267" d="m 17.011356,79.627124 c 0,-1.500178 1.216147,-2.716336 2.716335,-2.716336 h 10.865341 c 1.500178,0 2.716336,1.216158 2.716336,2.716336 0,1.500177 -1.216158,2.716335 -2.716336,2.716335 H 19.727691 c -1.500188,0 -2.716335,-1.216158 -2.716335,-2.716335 z" id="path28"></path>
    <path id="path27" style="fill:#34a853;fill-opacity:1;stroke-width:7.45722" d="m 84.748513,64.433688 c -2.951047,-2.03975 -6.423643,-3.239289 -10.15258,-3.239289 -5.638399,0 -10.702092,2.713769 -14.223593,7.003041 h 9.316255 11.521723 c 1.909595,0 3.462843,-1.671625 3.538195,-3.763752 z"></path>
    <path id="path39" style="fill:#34a853;fill-opacity:1;stroke-width:5.43267" d="M 56.125477 60.612522 L 41.458155 60.612522 C 39.957977 60.612522 38.742042 61.828974 38.742042 63.329152 C 38.742042 64.829329 39.957977 66.045266 41.458155 66.045266 L 52.714316 66.045266 C 53.608121 64.077307 54.758198 62.252559 56.125477 60.612522 z "></path>
    <path style="fill:#34a853;fill-opacity:1;stroke-width:5.43267" d="m 38.742038,47.0311 c 0,-1.500178 1.216158,-2.716335 2.716336,-2.716335 H 95.78508 c 1.49996,0 2.716335,1.216157 2.716335,2.716335 0,1.500178 -1.216375,2.716335 -2.716335,2.716335 H 41.458374 c -1.500178,0 -2.716336,-1.216157 -2.716336,-2.716335 z" id="path26"></path>
    <path style="fill:#34a853;fill-opacity:1;stroke-width:5.43267" d="m 17.011356,47.0311 c 0,-1.500178 1.216147,-2.716335 2.716335,-2.716335 h 10.865341 c 1.500178,0 2.716336,1.216157 2.716336,2.716335 0,1.500178 -1.216158,2.716335 -2.716336,2.716335 H 19.727691 c -1.500188,0 -2.716335,-1.216157 -2.716335,-2.716335 z" id="path1"></path>
  </g>
  <g inkscape:groupmode="layer" id="layer2" inkscape:label="Layer 2" style="display:inline">
    <path style="display:inline;stroke-width:0.115143" d="M 108.17871,103.07196 94.396118,89.289366 C 97.53031,84.636448 99.076675,78.82289 98.248793,72.628207 96.837142,62.0915 88.201435,53.516815 77.654368,52.181504 61.973072,50.197248 48.786926,63.383403 50.771292,79.064686 c 1.335657,10.551692 9.911492,19.194311 20.44936,20.599053 6.19467,0.827751 12.009387,-0.71804 16.661159,-3.852691 l 13.782579,13.782592 c 1.79853,1.79854 4.7151,1.79854 6.51363,0 1.79692,-1.80082 1.79692,-4.72545 8.7e-4,-6.52168 z M 59.680575,75.932802 c 0,-8.126772 6.611497,-14.738269 14.738283,-14.738269 8.126772,0 14.738269,6.611497 14.738269,14.738269 0,8.126786 -6.611497,14.738283 -14.738269,14.738283 -8.126786,0 -14.738283,-6.609204 -14.738283,-14.738283 z" id="path36" transform="translate(-0.47409367,-0.4053445)"></path>
  </g>
</svg></svg></g></g></svg></g><g id="dark-icon"><svg xmlns="http://www.w3.org/2000/svg" version="1.1" xmlns:xlink="http://www.w3.org/1999/xlink" xmlns:svgjs="http://svgjs.dev/svgjs" width="1000" height="1000"><g clip-path="url(#SvgjsClipPath1044)"><rect width="1000" height="1000" fill="#ffffff"></rect><g transform="matrix(1.6166281755196306,0,0,1.6166281755196306,150,150)"><svg xmlns="http://www.w3.org/2000/svg" version="1.1" xmlns:xlink="http://www.w3.org/1999/xlink" xmlns:svgjs="http://svgjs.dev/svgjs" width="433" height="433"><svg width="433" height="433" viewBox="0 0 114.56458 114.56458" version="1.1" id="svg1" inkscape:version="1.4 (86a8ad7, 2024-10-11)" sodipodi:docname="icon_v3.svg" xmlns:inkscape="http://www.inkscape.org/namespaces/inkscape" xmlns:sodipodi="http://sodipodi.sourceforge.net/DTD/sodipodi-0.dtd" xmlns="http://www.w3.org/2000/svg" xmlns:svg="http://www.w3.org/2000/svg">
  <sodipodi:namedview id="namedview1" pagecolor="#ffffff" bordercolor="#000000" borderopacity="0.25" inkscape:showpageshadow="2" inkscape:pageopacity="0.0" inkscape:pagecheckerboard="0" inkscape:deskcolor="#d1d1d1" inkscape:document-units="mm" inkscape:zoom="6.6386364" inkscape:cx="285.75145" inkscape:cy="266.69634" inkscape:window-width="3840" inkscape:window-height="2081" inkscape:window-x="-9" inkscape:window-y="-9" inkscape:window-maximized="1" inkscape:current-layer="layer1"></sodipodi:namedview>
  <defs id="defs1">
    <clipPath id="a">
      <path fill="#ffffff" d="m 0.459,0.555 h 151 v 88 h -151 z" id="path3-2"></path>
    </clipPath>
  <clipPath id="SvgjsClipPath1044"><rect width="1000" height="1000" x="0" y="0" rx="350" ry="350"></rect></clipPath></defs>
  <g inkscape:label="Layer 1" inkscape:groupmode="layer" id="layer1" transform="translate(-0.47409368,-0.4053445)">
    <g clip-path="url(#a)" id="g2" transform="matrix(0.54001286,0,0,0.44952969,16.740519,0.18630074)">
      <path fill="#34a853" d="m 151.025,85.224 q -0.071,-0.464 -0.147,-0.92 a 75.665,75.665 0 0 0 -7.546,-22.597 76.5,76.5 0 0 0 -5.511,-8.995 76,76 0 0 0 -8.322,-9.808 76.034,76.034 0 0 0 -13.398,-10.626 q 0.042,-0.074 0.085,-0.148 2.286,-3.948 4.572,-7.897 l 4.47,-7.712 a 3946,3946 0 0 0 3.208,-5.54 q 0.38,-0.658 0.604,-1.355 a 6.97,6.97 0 0 0 -0.652,-5.702 6.9,6.9 0 0 0 -2.406,-2.398 7,7 0 0 0 -2.954,-0.95 7,7 0 0 0 -2.376,0.206 6.93,6.93 0 0 0 -4.22,3.227 q -1.606,2.77 -3.208,5.54 l -4.47,7.712 c -1.523,2.634 -3.05,5.263 -4.573,7.897 q -0.25,0.43 -0.5,0.865 c -0.232,-0.092 -0.46,-0.184 -0.692,-0.272 -8.398,-3.205 -17.511,-4.958 -27.036,-4.958 q -0.39,-10e-4 -0.78,0.004 A 75.7,75.7 0 0 0 50.977,25 q -1.317,0.46 -2.608,0.968 -0.234,-0.404 -0.467,-0.806 -2.286,-3.95 -4.573,-7.897 l -4.47,-7.713 a 4385,4385 0 0 1 -3.208,-5.54 6.93,6.93 0 0 0 -6.596,-3.432 6.9,6.9 0 0 0 -2.954,0.95 6.92,6.92 0 0 0 -3.157,4.185 6.96,6.96 0 0 0 0.703,5.27 l 3.208,5.54 4.47,7.713 c 1.523,2.634 3.05,5.263 4.573,7.897 0.01,0.022 0.025,0.044 0.036,0.066 A 76.3,76.3 0 0 0 22.407,42.912 76.5,76.5 0 0 0 14.085,52.72 75.4,75.4 0 0 0 8.575,61.715 75.7,75.7 0 0 0 1.029,84.312 76.038,76.038 0 0 0 0.448,88.559 h 151 a 77,77 0 0 0 -0.434,-3.327 z" id="path1-5"></path>
      <path fill="#202124" d="m 115.225,67.663 c 3.022,-2.012 3.461,-6.668 0.981,-10.4 -2.48,-3.73 -6.939,-5.123 -9.96,-3.11 -3.021,2.012 -3.46,6.668 -0.98,10.4 2.479,3.73 6.938,5.123 9.959,3.11 M 46.762,64.564 c 2.48,-3.73 2.04,-8.387 -0.98,-10.4 -3.022,-2.012 -7.481,-0.619 -9.96,3.112 -2.479,3.731 -2.041,8.387 0.98,10.4 3.021,2.013 7.48,0.62 9.96,-3.112" id="path2-5"></path>
    </g>
    <path style="fill:#34a853;fill-opacity:1;stroke-width:5.43267" d="m 38.742038,112.22315 c 0,-1.49996 1.216158,-2.71634 2.716336,-2.71634 H 95.78508 c 1.49996,0 2.716335,1.21638 2.716335,2.71634 0,1.49996 -1.216375,2.71633 -2.716335,2.71633 H 41.458374 c -1.500178,0 -2.716336,-1.21637 -2.716336,-2.71633 z" id="path32"></path>
    <path style="fill:#34a853;fill-opacity:1;stroke-width:5.43267" d="m 17.011356,112.22315 c 0,-1.49996 1.216147,-2.71634 2.716335,-2.71634 h 10.865341 c 1.500178,0 2.716336,1.21638 2.716336,2.71634 0,1.49996 -1.216158,2.71633 -2.716336,2.71633 H 19.727691 c -1.500188,0 -2.716335,-1.21637 -2.716335,-2.71633 z" id="path31"></path>
    <path style="fill:#34a853;fill-opacity:1;stroke-width:5.43267" d="m 38.742038,95.925135 c 0,-1.49996 1.216158,-2.716335 2.716336,-2.716335 h 38.028694 c 1.49996,0 2.716335,1.216375 2.716335,2.716335 0,1.499961 -1.216375,2.716336 -2.716335,2.716336 H 41.458374 c -1.500178,0 -2.716336,-1.216375 -2.716336,-2.716336 z" id="path30"></path>
    <path id="path29" style="fill:#34a853;fill-opacity:1;stroke-width:7.08049" d="m 88.941296,83.818134 c 0.876934,-2.602035 1.421985,-5.469459 1.561075,-8.501585 H 58.614483 c 0.139024,3.032478 0.68382,5.899695 1.560513,8.501585 z"></path>
    <path id="path43" style="fill:#34a853;fill-opacity:1;stroke-width:5.43267" d="M 97.841277 81.383347 C 98.247189 80.908687 98.501185 80.300872 98.501185 79.627382 C 98.501185 79.280282 98.430213 78.950676 98.311533 78.64553 C 98.206301 79.575208 98.049892 80.48906 97.841277 81.383347 z "></path>
    <path id="path41" style="fill:#34a853;fill-opacity:1;stroke-width:5.43267" d="M 50.602817 76.910752 L 41.458155 76.910752 C 39.957977 76.910752 38.742042 78.127204 38.742042 79.627382 C 38.742042 81.127559 39.957977 82.343496 41.458155 82.343496 L 51.437391 82.343496 C 51.139983 81.275591 50.912676 80.181641 50.771282 79.064626 C 50.679606 78.340167 50.630984 77.623311 50.602817 76.910752 z "></path>
    <path style="fill:#34a853;fill-opacity:1;stroke-width:5.43267" d="m 17.011356,79.627124 c 0,-1.500178 1.216147,-2.716336 2.716335,-2.716336 h 10.865341 c 1.500178,0 2.716336,1.216158 2.716336,2.716336 0,1.500177 -1.216158,2.716335 -2.716336,2.716335 H 19.727691 c -1.500188,0 -2.716335,-1.216158 -2.716335,-2.716335 z" id="path28"></path>
    <path id="path27" style="fill:#34a853;fill-opacity:1;stroke-width:7.45722" d="m 84.748513,64.433688 c -2.951047,-2.03975 -6.423643,-3.239289 -10.15258,-3.239289 -5.638399,0 -10.702092,2.713769 -14.223593,7.003041 h 9.316255 11.521723 c 1.909595,0 3.462843,-1.671625 3.538195,-3.763752 z"></path>
    <path id="path39" style="fill:#34a853;fill-opacity:1;stroke-width:5.43267" d="M 56.125477 60.612522 L 41.458155 60.612522 C 39.957977 60.612522 38.742042 61.828974 38.742042 63.329152 C 38.742042 64.829329 39.957977 66.045266 41.458155 66.045266 L 52.714316 66.045266 C 53.608121 64.077307 54.758198 62.252559 56.125477 60.612522 z "></path>
    <path style="fill:#34a853;fill-opacity:1;stroke-width:5.43267" d="m 38.742038,47.0311 c 0,-1.500178 1.216158,-2.716335 2.716336,-2.716335 H 95.78508 c 1.49996,0 2.716335,1.216157 2.716335,2.716335 0,1.500178 -1.216375,2.716335 -2.716335,2.716335 H 41.458374 c -1.500178,0 -2.716336,-1.216157 -2.716336,-2.716335 z" id="path26"></path>
    <path style="fill:#34a853;fill-opacity:1;stroke-width:5.43267" d="m 17.011356,47.0311 c 0,-1.500178 1.216147,-2.716335 2.716335,-2.716335 h 10.865341 c 1.500178,0 2.716336,1.216157 2.716336,2.716335 0,1.500178 -1.216158,2.716335 -2.716336,2.716335 H 19.727691 c -1.500188,0 -2.716335,-1.216157 -2.716335,-2.716335 z" id="path1"></path>
  </g>
  <g inkscape:groupmode="layer" id="layer2" inkscape:label="Layer 2" style="display:inline">
    <path style="display:inline;stroke-width:0.115143" d="M 108.17871,103.07196 94.396118,89.289366 C 97.53031,84.636448 99.076675,78.82289 98.248793,72.628207 96.837142,62.0915 88.201435,53.516815 77.654368,52.181504 61.973072,50.197248 48.786926,63.383403 50.771292,79.064686 c 1.335657,10.551692 9.911492,19.194311 20.44936,20.599053 6.19467,0.827751 12.009387,-0.71804 16.661159,-3.852691 l 13.782579,13.782592 c 1.79853,1.79854 4.7151,1.79854 6.51363,0 1.79692,-1.80082 1.79692,-4.72545 8.7e-4,-6.52168 z M 59.680575,75.932802 c 0,-8.126772 6.611497,-14.738269 14.738283,-14.738269 8.126772,0 14.738269,6.611497 14.738269,14.738269 0,8.126786 -6.611497,14.738283 -14.738269,14.738283 -8.126786,0 -14.738283,-6.609204 -14.738283,-14.738283 z" id="path36" transform="translate(-0.47409367,-0.4053445)"></path>
  </g>
</svg></svg></g></g></svg></g></svg>